<svg width="142" height="44" viewBox="0 0 142 44" fill="none" xmlns="http://www.w3.org/2000/svg">
<path d="M120.432 23.9756L108.141 10.3382C107.993 10.1738 107.811 10.0436 107.607 9.9564C107.404 9.8692 107.184 9.82713 106.963 9.83307H98.7128C98.5862 9.8336 98.4624 9.87024 98.3559 9.93867C98.2495 10.0071 98.1648 10.1045 98.1117 10.2194C98.0587 10.3343 98.0395 10.462 98.0565 10.5874C98.0735 10.7128 98.126 10.8308 98.2077 10.9274L109.993 23.9756L93.746 42.0916C93.6643 42.1882 93.6119 42.3062 93.5949 42.4316C93.5779 42.557 93.597 42.6847 93.6501 42.7996C93.7031 42.9145 93.7878 43.0119 93.8943 43.0804C94.0008 43.1488 94.1246 43.1854 94.2511 43.186H102.669C103.113 43.1796 103.537 42.9981 103.848 42.6809L120.432 23.9925V23.9756Z" fill="#ffffff"/>
<path d="M141.166 0.59846C141.112 0.419508 141 0.263634 140.847 0.155415C140.695 0.0471949 140.511 -0.0072135 140.324 0.000768074H131.99C131.741 0.00337252 131.496 0.0553151 131.268 0.153582C131.039 0.251848 130.833 0.394482 130.66 0.573205L117.443 15.3976L122.949 21.5177L140.88 1.38135C141.006 1.29989 141.103 1.17931 141.154 1.03799C141.206 0.896658 141.21 0.742316 141.166 0.59846Z" fill="#ffffff"/>
<path d="M123.059 26.375L117.562 32.5792L119.245 34.507L122.831 38.6403C123.003 38.8169 123.209 38.9576 123.436 39.0544C123.663 39.1512 123.906 39.2022 124.153 39.2043H132.571C132.734 39.2087 132.895 39.1657 133.034 39.0806C133.173 38.9954 133.284 38.8717 133.354 38.7245C133.425 38.5677 133.451 38.3947 133.43 38.224C133.409 38.0534 133.342 37.8917 133.236 37.7564L123.059 26.375Z" fill="#ffffff"/>
<path d="M78.214 13.8738V34.5826C78.1868 34.7739 78.0982 34.9512 77.9616 35.0878C77.825 35.2244 77.6477 35.313 77.4564 35.3402H72.9948C72.7638 35.3145 72.5373 35.2578 72.3213 35.1719C72.2132 35.1392 72.1127 35.0851 72.026 35.0128C71.9392 34.9405 71.8679 34.8514 71.8162 34.751L63.9031 23.639C63.8189 23.4706 63.6506 23.3864 63.5664 23.4706C63.4822 23.5548 63.398 23.639 63.398 23.8073V34.5826C63.3708 34.7739 63.2822 34.9512 63.1456 35.0878C63.0089 35.2244 62.8317 35.313 62.6404 35.3402H58.0946C57.9033 35.313 57.726 35.2244 57.5894 35.0878C57.4527 34.9512 57.3641 34.7739 57.3369 34.5826V13.8738C57.3641 13.6826 57.4527 13.5053 57.5894 13.3687C57.726 13.232 57.9033 13.1434 58.0946 13.1162H62.6404C62.8714 13.142 63.0979 13.1986 63.3138 13.2846C63.422 13.3173 63.5224 13.3714 63.6092 13.4437C63.6959 13.516 63.7673 13.605 63.8189 13.7055L71.732 24.8175C71.7715 24.8948 71.8318 24.9595 71.9063 25.0041C71.9807 25.0488 72.0662 25.0716 72.1529 25.07C72.3213 25.07 72.3213 24.9017 72.3213 24.7333V13.8738C72.3485 13.6826 72.4371 13.5053 72.5737 13.3687C72.7104 13.232 72.8877 13.1434 73.0789 13.1162H77.5406C77.6374 13.1223 77.732 13.1478 77.8188 13.1912C77.9055 13.2346 77.9827 13.295 78.0457 13.3688C78.214 13.5371 78.214 13.6213 78.214 13.8738Z" fill="#ffffff"/>
<path d="M86.7172 19.3625V20.6084C86.7233 20.7052 86.7488 20.7998 86.7921 20.8866C86.8355 20.9734 86.8959 21.0505 86.9697 21.1135C87.0331 21.1861 87.1105 21.2452 87.1973 21.2871C87.2841 21.3291 87.3785 21.3531 87.4748 21.3576H95.7246C95.9147 21.3844 96.0911 21.4718 96.2275 21.6067C96.364 21.7417 96.4534 21.9171 96.4823 22.1068V26.2654C96.476 26.361 96.4504 26.4543 96.407 26.5397C96.3636 26.6251 96.3032 26.7007 96.2297 26.7621C96.1667 26.8359 96.0896 26.8963 96.0028 26.9397C95.916 26.983 95.8214 27.0085 95.7246 27.0147H87.4748C87.2812 27.0275 87.1001 27.1151 86.9697 27.2588C86.8959 27.3218 86.8355 27.3989 86.7921 27.4857C86.7488 27.5725 86.7233 27.6671 86.7172 27.7639V28.9256C86.7233 29.0224 86.7488 29.117 86.7921 29.2038C86.8355 29.2905 86.8959 29.3677 86.9697 29.4307C87.1001 29.5744 87.2812 29.6619 87.4748 29.6748H96.9032C97 29.6809 97.0946 29.7064 97.1814 29.7498C97.2681 29.7932 97.3453 29.8536 97.4083 29.9273C97.4818 29.9887 97.5421 30.0644 97.5855 30.1498C97.6289 30.2351 97.6545 30.3284 97.6608 30.424V34.6331C97.6319 34.8229 97.5426 34.9983 97.4061 35.1332C97.2696 35.2682 97.0932 35.3556 96.9032 35.3823H81.4979C81.3078 35.3556 81.1314 35.2682 80.9949 35.1332C80.8585 34.9983 80.7691 34.8229 80.7402 34.6331V13.8654C80.7463 13.7686 80.7718 13.674 80.8152 13.5872C80.8586 13.5005 80.919 13.4233 80.9928 13.3603C81.0562 13.2877 81.1336 13.2287 81.2204 13.1867C81.3072 13.1448 81.4016 13.1208 81.4979 13.1162H96.9032C96.9995 13.1208 97.0938 13.1448 97.1806 13.1867C97.2674 13.2287 97.3449 13.2877 97.4083 13.3603C97.4821 13.4233 97.5424 13.5005 97.5858 13.5872C97.6292 13.674 97.6547 13.7686 97.6608 13.8654V17.9398C97.655 18.0355 97.6296 18.129 97.5862 18.2144C97.5427 18.2999 97.4822 18.3755 97.4083 18.4365C97.3453 18.5103 97.2681 18.5707 97.1814 18.6141C97.0946 18.6574 97 18.6829 96.9032 18.6891H87.4748C87.378 18.6952 87.2834 18.7207 87.1966 18.7641C87.1098 18.8074 87.0327 18.8678 86.9697 18.9416C86.8013 19.1015 86.7172 19.1015 86.7172 19.3625Z" fill="#ffffff"/>
<path d="M54.812 13.8317C54.8155 13.7368 54.7994 13.6422 54.7647 13.5538C54.73 13.4654 54.6774 13.3851 54.6103 13.3179C54.5431 13.2507 54.4628 13.1982 54.3744 13.1635C54.286 13.1287 54.1913 13.1127 54.0964 13.1162H49.5927C49.4985 13.1138 49.4048 13.1308 49.3173 13.166C49.2299 13.2013 49.1506 13.254 49.0844 13.3211C49.0181 13.3881 48.9663 13.468 48.9321 13.5558C48.8979 13.6437 48.8821 13.7376 48.8856 13.8317V24.4639V34.6163C48.881 34.7119 48.8959 34.8075 48.9294 34.8972C48.9629 34.9869 49.0143 35.0689 49.0804 35.1382C49.1465 35.2075 49.226 35.2626 49.3141 35.3002C49.4021 35.3378 49.4969 35.3572 49.5927 35.3571H54.088C54.1832 35.3575 54.2776 35.3391 54.3657 35.303C54.4538 35.2669 54.534 35.2138 54.6015 35.1466C54.6675 35.0787 54.7194 34.9983 54.754 34.9101C54.7887 34.822 54.8055 34.7278 54.8036 34.6331V24.4639L54.812 13.8317Z" fill="#ffffff"/>
<path d="M46.3686 13.8738V34.5826C46.3414 34.7739 46.2528 34.9512 46.1162 35.0878C45.9796 35.2244 45.8023 35.313 45.611 35.3402H41.0652C40.8739 35.313 40.6966 35.2244 40.56 35.0878C40.4234 34.9512 40.3348 34.7739 40.3075 34.5826V24.8175C40.3075 24.6491 40.2234 24.4808 40.055 24.4808C39.9682 24.4792 39.8827 24.502 39.8083 24.5467C39.7339 24.5913 39.6735 24.656 39.6341 24.7333L34.499 32.9832C34.4402 33.0616 34.3639 33.1252 34.2762 33.169C34.1886 33.2129 34.0919 33.2357 33.9939 33.2357C33.8959 33.2357 33.7992 33.2129 33.7115 33.169C33.6239 33.1252 33.5476 33.0616 33.4888 32.9832L28.3537 24.7333C28.3143 24.656 28.2539 24.5913 28.1795 24.5467C28.105 24.502 28.0196 24.4792 27.9328 24.4808C27.7644 24.4808 27.6802 24.6491 27.6802 24.8175V34.5826C27.653 34.7739 27.5644 34.9512 27.4278 35.0878C27.2912 35.2244 27.1139 35.313 26.9226 35.3402H22.3768C22.1855 35.313 22.0082 35.2244 21.8716 35.0878C21.735 34.9512 21.6464 34.7739 21.6191 34.5826V13.8738C21.6464 13.6826 21.735 13.5053 21.8716 13.3687C22.0082 13.232 22.1855 13.1434 22.3768 13.1162H26.5859C26.8169 13.142 27.0434 13.1986 27.2593 13.2846C27.3675 13.3173 27.4679 13.3714 27.5547 13.4437C27.6414 13.516 27.7128 13.605 27.7644 13.7055L33.6572 22.292C33.6985 22.3676 33.7594 22.4306 33.8334 22.4744C33.9075 22.5183 33.992 22.5415 34.0781 22.5415C34.1642 22.5415 34.2487 22.5183 34.3227 22.4744C34.3968 22.4306 34.4576 22.3676 34.499 22.292L40.3328 13.7055C40.3844 13.605 40.4558 13.516 40.5425 13.4437C40.6293 13.3714 40.7298 13.3173 40.8379 13.2846C41.0507 13.1892 41.2787 13.1322 41.5113 13.1162H45.7204C45.8173 13.1223 45.9118 13.1478 45.9986 13.1912C46.0854 13.2346 46.1625 13.295 46.2255 13.3688C46.3355 13.5129 46.3866 13.6934 46.3686 13.8738Z" fill="#ffffff"/>
<path d="M0.00100161 13.8321C-0.00135936 13.7366 0.0161259 13.6416 0.0523517 13.5532C0.0885775 13.4648 0.142755 13.3849 0.211456 13.3186C0.277275 13.252 0.356086 13.1997 0.442982 13.165C0.529879 13.1302 0.623 13.1137 0.716549 13.1165H5.21186C5.30541 13.1137 5.39853 13.1302 5.48543 13.165C5.57233 13.1997 5.65114 13.252 5.71696 13.3186C5.78566 13.3849 5.83983 13.4648 5.87606 13.5532C5.91229 13.6416 5.92977 13.7366 5.92741 13.8321V25.9458C5.9048 26.6081 6.03139 27.2669 6.29781 27.8736C6.51546 28.3396 6.83475 28.751 7.23223 29.0774C7.58652 29.3538 7.98897 29.5622 8.4192 29.6919C9.16141 29.9275 9.95832 29.9275 10.7005 29.6919C11.1273 29.5664 11.525 29.3575 11.8707 29.0774C12.2604 28.7476 12.5736 28.3368 12.7882 27.8736C13.0618 27.2689 13.1915 26.6091 13.1671 25.9458V13.8321C13.1647 13.7366 13.1822 13.6416 13.2184 13.5532C13.2546 13.4648 13.3088 13.3849 13.3775 13.3186C13.4433 13.252 13.5221 13.1997 13.609 13.165C13.6959 13.1302 13.7891 13.1137 13.8826 13.1165H18.3779C18.5663 13.1147 18.7478 13.1873 18.883 13.3186C18.9501 13.3861 19.0033 13.4662 19.0394 13.5543C19.0755 13.6425 19.0939 13.7368 19.0935 13.8321V25.9458C19.109 27.2643 18.8807 28.5743 18.42 29.8098C17.9958 30.9235 17.3385 31.9338 16.4922 32.773C15.6266 33.6064 14.5975 34.2513 13.4701 34.6671C12.2213 35.1325 10.8966 35.3609 9.56407 35.3406C8.22872 35.3616 6.90117 35.1332 5.64961 34.6671C4.52219 34.2513 3.49317 33.6064 2.62748 32.773C1.78135 31.932 1.12166 30.9224 0.691293 29.8098C0.216944 28.5776 -0.0173622 27.2661 0.00100161 25.9458V13.8321Z" fill="#ffffff"/>
</svg>
